<?xml version="1.0" ?><svg viewBox="0 0 24 24" xmlns="http://www.w3.org/2000/svg"><defs><style>.cls-1{fill:none;}.cls-2{fill:#00abe8;}.cls-3{fill:#fff;fill-rule:evenodd;}</style></defs><title/><g data-name="Layer 2" id="Layer_2"><g data-name="Layer 2" id="Layer_2-2"><g id="Telegram"><rect class="cls-1" height="24" width="24"/><path class="cls-2" d="M1,12C1,4,4,1,12,1S23,4,23,12,20,23,12,23,1,20,1,12"/><path class="cls-3" d="M17,7,6.25,11.54a.42.42,0,0,0,0,.78l2,.63a2.19,2.19,0,0,0,1.89-.29l4.53-3.13a.16.16,0,0,1,.2.24l-3.47,3.32a.84.84,0,0,0,.11,1.29l3.73,2.52a.84.84,0,0,0,1.29-.56L18,7.8A.73.73,0,0,0,17,7Z"/></g></g></g></svg>